<svg xmlns="http://www.w3.org/2000/svg" version="1.1" xmlns:xlink="http://www.w3.org/1999/xlink" viewBox="0 0 200 200"><rect width="200" height="200" fill="url('#gradient')"></rect><defs><linearGradient id="gradient" gradientTransform="rotate(14 0.5 0.5)"><stop offset="0%" stop-color="#0ab5fa"></stop><stop offset="100%" stop-color="#fbf2d5"></stop></linearGradient></defs><g><g fill="#0a4e91" transform="matrix(1.9419401896425967,0,0,1.9419401896425967,20.69131702080336,114.37270124318563)" stroke="#f6f6f6" stroke-width="1.2"><path d="M9.17-4.81L12.58-4.81Q12.51-3.33 11.78-2.19Q11.04-1.05 9.72-0.43Q8.40 0.20 6.70 0.20L6.70 0.20Q3.90 0.20 2.29-1.63Q0.67-3.46 0.67-6.79L0.67-6.79L0.67-7.49Q0.67-9.58 1.40-11.15Q2.13-12.71 3.50-13.57Q4.86-14.42 6.66-14.42L6.66-14.42Q9.25-14.42 10.82-13.06Q12.39-11.70 12.61-9.31L12.61-9.31L9.19-9.31Q9.15-10.61 8.54-11.17Q7.92-11.74 6.66-11.74L6.66-11.74Q5.38-11.74 4.79-10.78Q4.19-9.82 4.16-7.72L4.16-7.72L4.16-6.72Q4.16-4.44 4.73-3.47Q5.30-2.49 6.70-2.49L6.70-2.49Q7.88-2.49 8.51-3.05Q9.13-3.60 9.17-4.81L9.17-4.81ZM23.29 0L20 0Q19.82-0.32 19.69-0.95L19.69-0.95Q18.78 0.20 17.15 0.20L17.15 0.20Q15.65 0.20 14.61-0.71Q13.56-1.61 13.56-2.98L13.56-2.98Q13.56-4.70 14.83-5.58Q16.10-6.46 18.53-6.46L18.53-6.46L19.54-6.46L19.54-7.01Q19.54-8.47 18.28-8.47L18.28-8.47Q17.11-8.47 17.11-7.31L17.11-7.31L13.82-7.31Q13.82-8.85 15.12-9.80Q16.43-10.76 18.45-10.76Q20.47-10.76 21.64-9.78Q22.81-8.79 22.84-7.07L22.84-7.07L22.84-2.39Q22.86-0.94 23.29-0.17L23.29-0.17L23.29 0ZM17.94-2.15L17.94-2.15Q18.55-2.15 18.96-2.41Q19.37-2.68 19.54-3.01L19.54-3.01L19.54-4.70L18.58-4.70Q16.87-4.70 16.87-3.15L16.87-3.15Q16.87-2.71 17.17-2.43Q17.47-2.15 17.94-2.15ZM31.11-10.64L31.05-7.59L29.97-7.67Q28.42-7.67 27.98-6.69L27.98-6.69L27.98 0L24.69 0L24.69-10.57L27.77-10.57L27.88-9.21Q28.71-10.76 30.20-10.76L30.20-10.76Q30.72-10.76 31.11-10.64L31.11-10.64ZM35.71-15L35.71 0L32.41 0L32.41-15L35.71-15ZM43.51-4.82L41.32-4.82L41.32 0L37.89 0L37.89-14.22L43.56-14.22Q45.20-14.22 46.45-13.62Q47.71-13.02 48.39-11.91Q49.08-10.80 49.08-9.39L49.08-9.39Q49.08-7.31 47.59-6.07Q46.10-4.82 43.51-4.82L43.51-4.82ZM41.32-11.57L41.32-7.47L43.56-7.47Q44.56-7.47 45.08-7.97Q45.61-8.47 45.61-9.38L45.61-9.38Q45.61-10.37 45.07-10.97Q44.53-11.56 43.60-11.57L43.60-11.57L41.32-11.57ZM55.74 0.20L55.74 0.20Q53.31 0.20 51.81-1.25Q50.30-2.71 50.30-5.03L50.30-5.03L50.30-5.30Q50.30-6.92 50.90-8.16Q51.50-9.40 52.66-10.08Q53.81-10.76 55.39-10.76L55.39-10.76Q57.62-10.76 58.91-9.38Q60.20-8.00 60.20-5.53L60.20-5.53L60.20-4.25L53.65-4.25Q53.83-3.36 54.42-2.85Q55.02-2.34 55.97-2.34L55.97-2.34Q57.53-2.34 58.41-3.44L58.41-3.44L59.91-1.66Q59.30-0.81 58.17-0.31Q57.04 0.20 55.74 0.20ZM55.37-8.22L55.37-8.22Q53.93-8.22 53.65-6.31L53.65-6.31L56.97-6.31L56.97-6.56Q56.99-7.35 56.57-7.79Q56.15-8.22 55.37-8.22ZM67.05-2.97L67.05-2.97Q67.05-3.39 66.61-3.64Q66.17-3.90 64.94-4.17Q63.71-4.44 62.91-4.89Q62.11-5.33 61.69-5.97Q61.27-6.60 61.27-7.42L61.27-7.42Q61.27-8.88 62.47-9.82Q63.67-10.76 65.62-10.76L65.62-10.76Q67.71-10.76 68.97-9.81Q70.24-8.87 70.24-7.32L70.24-7.32L66.94-7.32Q66.94-8.59 65.61-8.59L65.61-8.59Q65.09-8.59 64.74-8.31Q64.38-8.02 64.38-7.59L64.38-7.59Q64.38-7.15 64.81-6.88Q65.24-6.60 66.19-6.43Q67.13-6.25 67.84-6.01L67.84-6.01Q70.22-5.19 70.22-3.07L70.22-3.07Q70.22-1.62 68.94-0.71Q67.66 0.20 65.62 0.20L65.62 0.20Q64.26 0.20 63.19-0.29Q62.13-0.78 61.53-1.62Q60.94-2.46 60.94-3.39L60.94-3.39L64.01-3.39Q64.03-2.66 64.50-2.32Q64.97-1.98 65.70-1.98L65.70-1.98Q66.38-1.98 66.71-2.26Q67.05-2.53 67.05-2.97ZM81.01 0L77.71 0Q77.54-0.32 77.40-0.95L77.40-0.95Q76.49 0.20 74.86 0.20L74.86 0.20Q73.37 0.20 72.32-0.71Q71.28-1.61 71.28-2.98L71.28-2.98Q71.28-4.70 72.55-5.58Q73.82-6.46 76.24-6.46L76.24-6.46L77.26-6.46L77.26-7.01Q77.26-8.47 76.00-8.47L76.00-8.47Q74.82-8.47 74.82-7.31L74.82-7.31L71.53-7.31Q71.53-8.85 72.84-9.80Q74.14-10.76 76.16-10.76Q78.18-10.76 79.36-9.78Q80.53-8.79 80.56-7.07L80.56-7.07L80.56-2.39Q80.58-0.94 81.01-0.17L81.01-0.17L81.01 0ZM75.65-2.15L75.65-2.15Q76.27-2.15 76.67-2.41Q77.08-2.68 77.26-3.01L77.26-3.01L77.26-4.70L76.30-4.70Q74.58-4.70 74.58-3.15L74.58-3.15Q74.58-2.71 74.88-2.43Q75.19-2.15 75.65-2.15Z"></path></g></g></svg>